<?xml version="1.0" encoding="iso-8859-1"?>
<!-- Generator: Adobe Illustrator 19.0.0, SVG Export Plug-In . SVG Version: 6.00 Build 0)  -->
<svg version="1.1" id="Layer_1" xmlns="http://www.w3.org/2000/svg" xmlns:xlink="http://www.w3.org/1999/xlink" x="0px" y="0px"
	 viewBox="0 0 512.002 512.002" style="enable-background:new 0 0 512.002 512.002;" xml:space="preserve">
<g>
	<g>
		<path d="M291.722,79.728c-41.019,0-79.405,11.487-112.113,31.412l-42.261-42.261c-3.388-3.39-8.699-3.922-12.694-1.274
			c-10.451,6.93-20.337,14.804-29.459,23.447c-0.864-1.959-1.415-3.93-2.039-6.171c-1.74-6.249-3.907-14.025-13.114-23.232
			c-9.208-9.208-16.985-11.376-23.234-13.117c-5.182-1.444-8.928-2.488-14.393-7.954s-6.509-9.21-7.954-14.393
			C32.72,19.937,30.553,12.16,21.344,2.952c-3.935-3.937-10.316-3.935-14.249,0c-3.935,3.935-3.935,10.316,0,14.249
			c5.465,5.465,6.509,9.21,7.954,14.393c1.741,6.249,3.908,14.025,13.117,23.234c9.208,9.208,16.985,11.376,23.234,13.117
			c5.182,1.444,8.928,2.488,14.393,7.954c5.464,5.464,6.508,9.208,7.951,14.391c1.258,4.514,2.753,9.831,6.95,15.905
			c-6.231,7.161-12.003,14.718-17.225,22.598c-2.648,3.996-2.115,9.303,1.274,12.691L107,183.742
			c-19.927,32.709-31.417,71.098-31.417,112.121c0,119.179,96.958,216.138,216.137,216.138s216.138-96.958,216.138-216.138
			S410.901,79.728,291.722,79.728z M84.943,133.185c6.116-8.437,12.922-16.418,20.306-23.801
			c7.375-7.376,15.355-14.182,23.801-20.305l33.556,33.556c-16.734,12.504-31.601,27.372-44.107,44.104L84.943,133.185z
			 M291.722,491.85c-108.066,0-195.984-87.918-195.984-195.985S183.656,99.881,291.722,99.881
			c108.068,0,195.985,87.918,195.985,195.985S399.789,491.85,291.722,491.85z"/>
	</g>
</g>
<g>
	<g>
		<path d="M327.86,119.969c-5.449-1.111-10.778,2.396-11.896,7.846c-1.119,5.452,2.393,10.778,7.845,11.896
			c73.769,15.135,127.312,80.808,127.312,156.155c0,14.401-1.929,28.679-5.734,42.438c-1.483,5.365,1.662,10.915,7.025,12.398
			c0.899,0.249,1.803,0.367,2.691,0.367c4.418,0,8.472-2.929,9.707-7.393c4.289-15.508,6.464-31.594,6.464-47.809
			C471.274,210.993,410.96,137.018,327.86,119.969z"/>
	</g>
</g>
<g>
	<g>
		<circle cx="291.722" cy="126.388" r="10.076"/>
	</g>
</g>
<g>
</g>
<g>
</g>
<g>
</g>
<g>
</g>
<g>
</g>
<g>
</g>
<g>
</g>
<g>
</g>
<g>
</g>
<g>
</g>
<g>
</g>
<g>
</g>
<g>
</g>
<g>
</g>
<g>
</g>
</svg>
