<?xml version="1.0" encoding="iso-8859-1"?>
<!-- Generator: Adobe Illustrator 19.0.0, SVG Export Plug-In . SVG Version: 6.00 Build 0)  -->
<svg version="1.1" id="Layer_1" xmlns="http://www.w3.org/2000/svg" xmlns:xlink="http://www.w3.org/1999/xlink" x="0px" y="0px"
	 viewBox="0 0 511.998 511.998" style="enable-background:new 0 0 511.998 511.998;" xml:space="preserve">
<path style="fill:#666666;" d="M96.911,120.104c-2.659,0-5.319-1.014-7.347-3.044c-9.494-9.496-11.729-17.514-13.523-23.956
	c-1.488-5.344-2.564-9.205-8.199-14.839c-5.636-5.636-9.497-6.712-14.842-8.202c-6.444-1.795-14.462-4.03-23.958-13.526
	s-11.73-17.514-13.526-23.958c-1.489-5.344-2.566-9.206-8.2-14.842c-4.058-4.058-4.058-10.637,0-14.694s10.637-4.059,14.694,0
	c9.496,9.496,11.729,17.514,13.524,23.958c1.489,5.344,2.566,9.206,8.202,14.842s9.497,6.712,14.842,8.202
	c6.444,1.795,14.462,4.03,23.958,13.526c9.494,9.494,11.729,17.513,13.523,23.956c1.489,5.344,2.564,9.205,8.199,14.839
	c4.058,4.058,4.058,10.637,0,14.694C102.23,119.088,99.57,120.104,96.911,120.104z"/>
<path style="fill:#999999;" d="M178.099,122.189l-49.39-49.39c-11.703,7.76-22.797,16.769-33.102,27.072
	c-10.305,10.305-19.325,21.41-27.072,33.102l49.388,49.388"/>
<path style="fill:#808080;" d="M89.223,106.558c-7.685,8.375-14.587,17.211-20.688,26.416l49.39,49.388l23.552-23.552
	L89.223,106.558z"/>
<circle style="fill:#999999;" cx="295.245" cy="299.511" r="212.48"/>
<path style="fill:#808080;" d="M208.46,386.296c-72.093-72.092-81.537-183.091-28.365-265.397
	c-12.431,8.031-24.214,17.477-35.102,28.365c-82.98,82.98-82.98,217.519,0,300.499s217.519,82.98,300.499,0
	c10.888-10.888,20.334-22.672,28.365-35.102C391.553,467.833,280.553,458.388,208.46,386.296z"/>
<ellipse transform="matrix(-0.7071 -0.7071 0.7071 -0.7071 528.5333 593.8027)" style="fill:#B3B3B3;" cx="387.247" cy="187.438" rx="90.743" ry="47.103"/>
<g>
</g>
<g>
</g>
<g>
</g>
<g>
</g>
<g>
</g>
<g>
</g>
<g>
</g>
<g>
</g>
<g>
</g>
<g>
</g>
<g>
</g>
<g>
</g>
<g>
</g>
<g>
</g>
<g>
</g>
</svg>
